<?xml version="1.0" encoding="UTF-8" standalone="no"?>
<!-- Generator: Adobe Illustrator 16.0.0, SVG Export Plug-In . SVG Version: 6.00 Build 0)  -->

<svg
   version="1.1"
   id="Layer_1"
   x="0px"
   y="0px"
   width="295"
   height="181.66701"
   viewBox="0 0 295 181.66729"
   enable-background="new 0 0 3000 2000"
   xml:space="preserve"
   sodipodi:docname="Color logo - no background.svg"
   inkscape:version="1.4 (86a8ad7, 2024-10-11)"
   xmlns:inkscape="http://www.inkscape.org/namespaces/inkscape"
   xmlns:sodipodi="http://sodipodi.sourceforge.net/DTD/sodipodi-0.dtd"
   xmlns:xlink="http://www.w3.org/1999/xlink"
   xmlns="http://www.w3.org/2000/svg"
   xmlns:svg="http://www.w3.org/2000/svg"><defs
   id="defs91"><linearGradient
     id="linearGradient132"
     inkscape:collect="always"><stop
       style="stop-color:#ff0000;stop-opacity:1;"
       offset="0"
       id="stop132" /><stop
       style="stop-color:#ffda4e;stop-opacity:1"
       offset="0.60292941"
       id="stop133" /></linearGradient><linearGradient
     id="swatch108"
     inkscape:swatch="solid"><stop
       style="stop-color:#f9f9f9;stop-opacity:1;"
       offset="0"
       id="stop108" /></linearGradient><inkscape:path-effect
     effect="fill_between_many"
     method="originald"
     linkedpaths="#path124,0,1|"
     id="path-effect132" /><radialGradient
     inkscape:collect="always"
     xlink:href="#linearGradient132"
     id="radialGradient133"
     cx="19.166857"
     cy="245.77097"
     fx="19.166857"
     fy="245.77097"
     r="37.956757"
     gradientTransform="matrix(1,0,0,1.3341453,0,-82.123202)"
     gradientUnits="userSpaceOnUse" /></defs><sodipodi:namedview
   id="namedview91"
   pagecolor="#ffffff"
   bordercolor="#ffffff"
   borderopacity="1"
   inkscape:showpageshadow="2"
   inkscape:pageopacity="0.0"
   inkscape:pagecheckerboard="false"
   inkscape:deskcolor="#7bd1d1"
   inkscape:zoom="5.6568542"
   inkscape:cx="144.42656"
   inkscape:cy="55.065941"
   inkscape:window-width="1920"
   inkscape:window-height="1017"
   inkscape:window-x="1912"
   inkscape:window-y="-6"
   inkscape:window-maximized="1"
   inkscape:current-layer="g90" />

<g
   id="g91"
   transform="matrix(0.23374598,0,0,0.23374598,-204.03965,-136.07732)">
	<g
   id="g55"
   transform="translate(-14.973543,-126.20558)">
		<linearGradient
   id="SVGID_1_"
   gradientUnits="userSpaceOnUse"
   x1="942.78711"
   y1="1297.4453"
   x2="1036.5771"
   y2="1297.4453">
			<stop
   offset="0"
   style="stop-color:#FFDA4E"
   id="stop1" />
			<stop
   offset="0.3198"
   style="stop-color:#EDBA29"
   id="stop2" />
			<stop
   offset="0.6802"
   style="stop-color:#D8A517"
   id="stop3" />
			<stop
   offset="1"
   style="stop-color:#FFF980"
   id="stop4" />
			<stop
   offset="1"
   style="stop-color:#F6BE21"
   id="stop5" />
		</linearGradient>
		<path
   fill="url(#SVGID_1_)"
   d="m 973.943,1248.695 v 43.262 h 24.053 c 6.241,0 10.412,-0.941 12.51,-2.824 2.798,-2.475 4.359,-6.834 4.682,-13.076 h 2.986 v 38.098 h -2.986 c -0.754,-5.328 -1.507,-8.744 -2.26,-10.252 -0.969,-1.883 -2.557,-3.361 -4.762,-4.439 -2.207,-1.074 -5.598,-1.613 -10.17,-1.613 h -24.053 v 36.08 c 0,4.842 0.214,7.789 0.645,8.838 0.431,1.049 1.184,1.883 2.261,2.502 1.075,0.619 3.12,0.928 6.134,0.928 h 18.564 c 6.188,0 10.682,-0.43 13.479,-1.291 2.798,-0.859 5.489,-2.555 8.071,-5.086 3.336,-3.336 6.752,-8.365 10.251,-15.094 h 3.229 l -9.443,27.443 h -84.347 v -2.986 h 3.874 c 2.583,0 5.03,-0.617 7.345,-1.855 1.723,-0.861 2.893,-2.152 3.512,-3.875 0.617,-1.721 0.928,-5.246 0.928,-10.574 v -71.109 c 0,-6.941 -0.699,-11.219 -2.098,-12.834 -1.938,-2.15 -5.166,-3.229 -9.687,-3.229 h -3.874 v -2.986 h 84.347 l 1.21,23.973 h -3.147 c -1.13,-5.758 -2.381,-9.711 -3.753,-11.865 -1.372,-2.15 -3.404,-3.793 -6.094,-4.924 -2.152,-0.807 -5.947,-1.209 -11.381,-1.209 h -30.026 z"
   id="path5"
   style="fill:url(#SVGID_1_)" />
		<linearGradient
   id="SVGID_2_"
   gradientUnits="userSpaceOnUse"
   x1="1038.1914"
   y1="1298.333"
   x2="1157.4072"
   y2="1298.333">
			<stop
   offset="0"
   style="stop-color:#FFDA4E"
   id="stop6" />
			<stop
   offset="0.3198"
   style="stop-color:#EDBA29"
   id="stop7" />
			<stop
   offset="0.6802"
   style="stop-color:#D8A517"
   id="stop8" />
			<stop
   offset="1"
   style="stop-color:#FFF980"
   id="stop9" />
			<stop
   offset="1"
   style="stop-color:#F6BE21"
   id="stop10" />
		</linearGradient>
		<path
   fill="url(#SVGID_2_)"
   d="m 1038.191,1242.721 h 29.703 l 66.912,82.088 v -63.119 c 0,-6.727 -0.754,-10.924 -2.26,-12.592 -1.991,-2.26 -5.139,-3.391 -9.443,-3.391 h -3.793 v -2.986 h 38.097 v 2.986 h -3.874 c -4.629,0 -7.91,1.4 -9.848,4.197 -1.184,1.723 -1.775,5.65 -1.775,11.785 v 92.256 h -2.906 l -72.158,-88.139 v 67.396 c 0,6.727 0.727,10.924 2.18,12.592 2.044,2.26 5.191,3.389 9.443,3.389 h 3.874 v 2.986 h -38.097 v -2.986 h 3.793 c 4.682,0 7.99,-1.398 9.928,-4.197 1.184,-1.721 1.775,-5.65 1.775,-11.783 v -76.115 c -3.176,-3.713 -5.583,-6.16 -7.224,-7.344 -1.642,-1.184 -4.05,-2.287 -7.224,-3.311 -1.562,-0.484 -3.929,-0.727 -7.104,-0.727 v -2.985 z"
   id="path10"
   style="fill:url(#SVGID_2_)" />
		<linearGradient
   id="SVGID_3_"
   gradientUnits="userSpaceOnUse"
   x1="1165.5586"
   y1="1297.4453"
   x2="1276.7832"
   y2="1297.4453">
			<stop
   offset="0"
   style="stop-color:#FFDA4E"
   id="stop11" />
			<stop
   offset="0.3198"
   style="stop-color:#EDBA29"
   id="stop12" />
			<stop
   offset="0.6802"
   style="stop-color:#D8A517"
   id="stop13" />
			<stop
   offset="1"
   style="stop-color:#FFF980"
   id="stop14" />
			<stop
   offset="1"
   style="stop-color:#F6BE21"
   id="stop15" />
		</linearGradient>
		<path
   fill="url(#SVGID_3_)"
   d="m 1261.205,1240.219 2.826,34.547 h -2.826 c -2.852,-8.609 -6.537,-15.094 -11.057,-19.453 -6.512,-6.295 -14.88,-9.443 -25.104,-9.443 -13.937,0 -24.537,5.516 -31.801,16.547 -6.082,9.311 -9.121,20.395 -9.121,33.254 0,10.439 2.018,19.965 6.054,28.574 4.036,8.609 9.323,14.918 15.86,18.926 6.538,4.01 13.25,6.014 20.139,6.014 4.035,0 7.937,-0.51 11.703,-1.533 3.766,-1.021 7.398,-2.529 10.896,-4.52 v -31.641 c 0,-5.488 -0.417,-9.08 -1.251,-10.775 -0.835,-1.695 -2.126,-2.986 -3.874,-3.875 -1.75,-0.887 -4.83,-1.33 -9.242,-1.33 v -3.068 h 42.375 v 3.068 h -2.018 c -4.197,0 -7.076,1.398 -8.637,4.195 -1.076,1.992 -1.613,5.92 -1.613,11.785 v 33.496 c -6.189,3.338 -12.297,5.785 -18.322,7.346 -6.027,1.561 -12.727,2.34 -20.099,2.34 -21.147,0 -37.209,-6.779 -48.187,-20.34 -8.232,-10.17 -12.35,-21.9 -12.35,-35.191 0,-9.631 2.313,-18.859 6.941,-27.686 5.489,-10.492 13.021,-18.564 22.601,-24.213 8.017,-4.682 17.487,-7.023 28.411,-7.023 3.982,0 7.6,0.324 10.856,0.969 3.255,0.646 7.87,2.072 13.843,4.277 3.013,1.131 5.031,1.695 6.053,1.695 1.022,0 1.897,-0.471 2.624,-1.412 0.726,-0.941 1.171,-2.785 1.331,-5.529 h 2.989 z"
   id="path15"
   style="fill:url(#SVGID_3_)" />
		<linearGradient
   id="SVGID_4_"
   gradientUnits="userSpaceOnUse"
   x1="1283.2402"
   y1="1297.4453"
   x2="1330.1367"
   y2="1297.4453">
			<stop
   offset="0"
   style="stop-color:#FFDA4E"
   id="stop16" />
			<stop
   offset="0.3198"
   style="stop-color:#EDBA29"
   id="stop17" />
			<stop
   offset="0.6802"
   style="stop-color:#D8A517"
   id="stop18" />
			<stop
   offset="1"
   style="stop-color:#FFF980"
   id="stop19" />
			<stop
   offset="1"
   style="stop-color:#F6BE21"
   id="stop20" />
		</linearGradient>
		<path
   fill="url(#SVGID_4_)"
   d="m 1330.137,1349.184 v 2.986 h -46.896 v -2.986 h 3.875 c 4.52,0 7.802,-1.318 9.848,-3.955 1.291,-1.721 1.937,-5.863 1.937,-12.43 v -70.705 c 0,-5.543 -0.351,-9.203 -1.05,-10.979 -0.538,-1.344 -1.642,-2.502 -3.309,-3.471 -2.369,-1.291 -4.843,-1.938 -7.426,-1.938 h -3.875 v -2.986 h 46.896 v 2.986 h -3.955 c -4.468,0 -7.723,1.32 -9.768,3.955 -1.346,1.723 -2.018,5.867 -2.018,12.432 v 70.705 c 0,5.543 0.35,9.201 1.05,10.977 0.537,1.346 1.667,2.502 3.39,3.471 2.313,1.293 4.762,1.938 7.346,1.938 z"
   id="path20"
   style="fill:url(#SVGID_4_)" />
		<linearGradient
   id="SVGID_5_"
   gradientUnits="userSpaceOnUse"
   x1="1331.9922"
   y1="1298.333"
   x2="1451.208"
   y2="1298.333">
			<stop
   offset="0"
   style="stop-color:#FFDA4E"
   id="stop21" />
			<stop
   offset="0.3198"
   style="stop-color:#EDBA29"
   id="stop22" />
			<stop
   offset="0.6802"
   style="stop-color:#D8A517"
   id="stop23" />
			<stop
   offset="1"
   style="stop-color:#FFF980"
   id="stop24" />
			<stop
   offset="1"
   style="stop-color:#F6BE21"
   id="stop25" />
		</linearGradient>
		<path
   fill="url(#SVGID_5_)"
   d="m 1331.992,1242.721 h 29.703 l 66.912,82.088 v -63.119 c 0,-6.727 -0.754,-10.924 -2.26,-12.592 -1.991,-2.26 -5.139,-3.391 -9.443,-3.391 h -3.793 v -2.986 h 38.097 v 2.986 h -3.874 c -4.629,0 -7.91,1.4 -9.848,4.197 -1.184,1.723 -1.775,5.65 -1.775,11.785 v 92.256 h -2.906 l -72.158,-88.139 v 67.396 c 0,6.727 0.727,10.924 2.18,12.592 2.044,2.26 5.191,3.389 9.443,3.389 h 3.874 v 2.986 h -38.097 v -2.986 h 3.793 c 4.682,0 7.99,-1.398 9.928,-4.197 1.184,-1.721 1.775,-5.65 1.775,-11.783 v -76.115 c -3.176,-3.713 -5.583,-6.16 -7.224,-7.344 -1.642,-1.184 -4.05,-2.287 -7.224,-3.311 -1.562,-0.484 -3.929,-0.727 -7.104,-0.727 v -2.985 z"
   id="path25"
   style="fill:url(#SVGID_5_)" />
		<linearGradient
   id="SVGID_6_"
   gradientUnits="userSpaceOnUse"
   x1="1456.9385"
   y1="1297.4453"
   x2="1550.7285"
   y2="1297.4453">
			<stop
   offset="0"
   style="stop-color:#FFDA4E"
   id="stop26" />
			<stop
   offset="0.3198"
   style="stop-color:#EDBA29"
   id="stop27" />
			<stop
   offset="0.6802"
   style="stop-color:#D8A517"
   id="stop28" />
			<stop
   offset="1"
   style="stop-color:#FFF980"
   id="stop29" />
			<stop
   offset="1"
   style="stop-color:#F6BE21"
   id="stop30" />
		</linearGradient>
		<path
   fill="url(#SVGID_6_)"
   d="m 1488.094,1248.695 v 43.262 h 24.053 c 6.242,0 10.412,-0.941 12.512,-2.824 2.797,-2.475 4.358,-6.834 4.682,-13.076 h 2.986 v 38.098 h -2.986 c -0.755,-5.328 -1.508,-8.744 -2.261,-10.252 -0.968,-1.883 -2.556,-3.361 -4.763,-4.439 -2.207,-1.074 -5.596,-1.613 -10.17,-1.613 h -24.053 v 36.08 c 0,4.842 0.215,7.789 0.646,8.838 0.43,1.049 1.183,1.883 2.26,2.502 1.076,0.619 3.12,0.928 6.135,0.928 h 18.564 c 6.187,0 10.68,-0.43 13.479,-1.291 2.797,-0.859 5.488,-2.555 8.072,-5.086 3.335,-3.336 6.752,-8.365 10.25,-15.094 h 3.229 l -9.443,27.443 h -84.347 v -2.986 h 3.874 c 2.583,0 5.031,-0.617 7.346,-1.855 1.721,-0.861 2.891,-2.152 3.511,-3.875 0.618,-1.721 0.929,-5.246 0.929,-10.574 v -71.109 c 0,-6.941 -0.701,-11.219 -2.1,-12.834 -1.938,-2.15 -5.166,-3.229 -9.686,-3.229 h -3.874 v -2.986 h 84.347 l 1.211,23.973 h -3.148 c -1.13,-5.758 -2.381,-9.711 -3.753,-11.865 -1.372,-2.15 -3.403,-3.793 -6.095,-4.924 -2.152,-0.807 -5.945,-1.209 -11.38,-1.209 h -30.027 z"
   id="path30"
   style="fill:url(#SVGID_6_)" />
		<linearGradient
   id="SVGID_7_"
   gradientUnits="userSpaceOnUse"
   x1="1557.9121"
   y1="1297.4453"
   x2="1651.7031"
   y2="1297.4453">
			<stop
   offset="0"
   style="stop-color:#FFDA4E"
   id="stop31" />
			<stop
   offset="0.3198"
   style="stop-color:#EDBA29"
   id="stop32" />
			<stop
   offset="0.6802"
   style="stop-color:#D8A517"
   id="stop33" />
			<stop
   offset="1"
   style="stop-color:#FFF980"
   id="stop34" />
			<stop
   offset="1"
   style="stop-color:#F6BE21"
   id="stop35" />
		</linearGradient>
		<path
   fill="url(#SVGID_7_)"
   d="m 1589.068,1248.695 v 43.262 h 24.053 c 6.241,0 10.412,-0.941 12.511,-2.824 2.798,-2.475 4.358,-6.834 4.682,-13.076 h 2.986 v 38.098 h -2.986 c -0.754,-5.328 -1.507,-8.744 -2.26,-10.252 -0.969,-1.883 -2.557,-3.361 -4.763,-4.439 -2.207,-1.074 -5.597,-1.613 -10.17,-1.613 h -24.053 v 36.08 c 0,4.842 0.215,7.789 0.646,8.838 0.431,1.049 1.183,1.883 2.26,2.502 1.076,0.619 3.12,0.928 6.135,0.928 h 18.564 c 6.188,0 10.681,-0.43 13.479,-1.291 2.797,-0.859 5.488,-2.555 8.071,-5.086 3.336,-3.336 6.752,-8.365 10.251,-15.094 h 3.229 l -9.444,27.443 h -84.347 v -2.986 h 3.875 c 2.582,0 5.03,-0.617 7.345,-1.855 1.722,-0.861 2.892,-2.152 3.511,-3.875 0.618,-1.721 0.929,-5.246 0.929,-10.574 v -71.109 c 0,-6.941 -0.7,-11.219 -2.099,-12.834 -1.938,-2.15 -5.166,-3.229 -9.686,-3.229 h -3.875 v -2.986 h 84.347 l 1.211,23.973 h -3.147 c -1.13,-5.758 -2.381,-9.711 -3.754,-11.865 -1.372,-2.15 -3.403,-3.793 -6.094,-4.924 -2.152,-0.807 -5.946,-1.209 -11.381,-1.209 h -30.026 z"
   id="path35"
   style="fill:url(#SVGID_7_)" />
		<linearGradient
   id="SVGID_8_"
   gradientUnits="userSpaceOnUse"
   x1="1658.3213"
   y1="1297.4453"
   x2="1767.2051"
   y2="1297.4453">
			<stop
   offset="0"
   style="stop-color:#FFDA4E"
   id="stop36" />
			<stop
   offset="0.3198"
   style="stop-color:#EDBA29"
   id="stop37" />
			<stop
   offset="0.6802"
   style="stop-color:#D8A517"
   id="stop38" />
			<stop
   offset="1"
   style="stop-color:#FFF980"
   id="stop39" />
			<stop
   offset="1"
   style="stop-color:#F6BE21"
   id="stop40" />
		</linearGradient>
		<path
   fill="url(#SVGID_8_)"
   d="m 1767.205,1352.17 h -29.219 l -37.048,-51.172 c -2.744,0.107 -4.978,0.16 -6.699,0.16 -0.7,0 -1.453,-0.012 -2.26,-0.039 -0.808,-0.027 -1.643,-0.068 -2.503,-0.121 v 31.801 c 0,6.889 0.753,11.166 2.261,12.834 2.044,2.369 5.111,3.551 9.201,3.551 h 4.277 v 2.986 h -46.895 v -2.986 h 4.116 c 4.627,0 7.937,-1.506 9.928,-4.52 1.13,-1.668 1.695,-5.623 1.695,-11.865 v -70.705 c 0,-6.889 -0.754,-11.166 -2.26,-12.834 -2.099,-2.367 -5.221,-3.553 -9.363,-3.553 h -4.116 v -2.986 h 39.873 c 11.623,0 20.191,0.848 25.707,2.543 5.516,1.695 10.197,4.816 14.045,9.363 3.847,4.547 5.771,9.969 5.771,16.264 0,6.727 -2.193,12.564 -6.578,17.516 -4.386,4.951 -11.179,8.447 -20.38,10.492 l 22.6,31.398 c 5.166,7.211 9.605,12 13.318,14.367 3.713,2.369 8.556,3.875 14.528,4.52 v 2.986 z m -77.728,-56.258 c 1.021,0 1.91,0.014 2.664,0.041 0.753,0.027 1.372,0.039 1.856,0.039 10.438,0 18.309,-2.26 23.608,-6.779 5.299,-4.519 7.951,-10.277 7.951,-17.273 0,-6.832 -2.14,-12.389 -6.417,-16.666 -4.278,-4.279 -9.942,-6.418 -16.99,-6.418 -3.122,0 -7.346,0.512 -12.673,1.533 v 45.523 z"
   id="path40"
   style="fill:url(#SVGID_8_)" />
		<linearGradient
   id="SVGID_9_"
   gradientUnits="userSpaceOnUse"
   x1="1769.8682"
   y1="1297.4453"
   x2="1816.7637"
   y2="1297.4453">
			<stop
   offset="0"
   style="stop-color:#FFDA4E"
   id="stop41" />
			<stop
   offset="0.3198"
   style="stop-color:#EDBA29"
   id="stop42" />
			<stop
   offset="0.6802"
   style="stop-color:#D8A517"
   id="stop43" />
			<stop
   offset="1"
   style="stop-color:#FFF980"
   id="stop44" />
			<stop
   offset="1"
   style="stop-color:#F6BE21"
   id="stop45" />
		</linearGradient>
		<path
   fill="url(#SVGID_9_)"
   d="m 1816.764,1349.184 v 2.986 h -46.896 v -2.986 h 3.875 c 4.52,0 7.801,-1.318 9.847,-3.955 1.291,-1.721 1.938,-5.863 1.938,-12.43 v -70.705 c 0,-5.543 -0.351,-9.203 -1.05,-10.979 -0.538,-1.344 -1.642,-2.502 -3.31,-3.471 -2.368,-1.291 -4.843,-1.938 -7.425,-1.938 h -3.875 v -2.986 h 46.896 v 2.986 h -3.955 c -4.467,0 -7.723,1.32 -9.767,3.955 -1.346,1.723 -2.018,5.867 -2.018,12.432 v 70.705 c 0,5.543 0.35,9.201 1.049,10.977 0.537,1.346 1.668,2.502 3.391,3.471 2.313,1.293 4.762,1.938 7.345,1.938 z"
   id="path45"
   style="fill:url(#SVGID_9_)" />
		<linearGradient
   id="SVGID_10_"
   gradientUnits="userSpaceOnUse"
   x1="1818.6201"
   y1="1298.333"
   x2="1937.8359"
   y2="1298.333">
			<stop
   offset="0"
   style="stop-color:#FFDA4E"
   id="stop46" />
			<stop
   offset="0.3198"
   style="stop-color:#EDBA29"
   id="stop47" />
			<stop
   offset="0.6802"
   style="stop-color:#D8A517"
   id="stop48" />
			<stop
   offset="1"
   style="stop-color:#FFF980"
   id="stop49" />
			<stop
   offset="1"
   style="stop-color:#F6BE21"
   id="stop50" />
		</linearGradient>
		<path
   fill="url(#SVGID_10_)"
   d="m 1818.62,1242.721 h 29.703 l 66.912,82.088 v -63.119 c 0,-6.727 -0.754,-10.924 -2.26,-12.592 -1.991,-2.26 -5.139,-3.391 -9.443,-3.391 h -3.794 v -2.986 h 38.098 v 2.986 h -3.874 c -4.629,0 -7.91,1.4 -9.848,4.197 -1.185,1.723 -1.775,5.65 -1.775,11.785 v 92.256 h -2.906 l -72.158,-88.139 v 67.396 c 0,6.727 0.727,10.924 2.179,12.592 2.045,2.26 5.192,3.389 9.444,3.389 h 3.874 v 2.986 h -38.098 v -2.986 h 3.794 c 4.682,0 7.99,-1.398 9.928,-4.197 1.183,-1.721 1.775,-5.65 1.775,-11.783 v -76.115 c -3.175,-3.713 -5.583,-6.16 -7.224,-7.344 -1.642,-1.184 -4.05,-2.287 -7.224,-3.311 -1.562,-0.484 -3.929,-0.727 -7.104,-0.727 v -2.985 z"
   id="path50"
   style="fill:url(#SVGID_10_)" />
		<linearGradient
   id="SVGID_11_"
   gradientUnits="userSpaceOnUse"
   x1="1945.9883"
   y1="1297.4453"
   x2="2057.2129"
   y2="1297.4453">
			<stop
   offset="0"
   style="stop-color:#FFDA4E"
   id="stop51" />
			<stop
   offset="0.3198"
   style="stop-color:#EDBA29"
   id="stop52" />
			<stop
   offset="0.6802"
   style="stop-color:#D8A517"
   id="stop53" />
			<stop
   offset="1"
   style="stop-color:#FFF980"
   id="stop54" />
			<stop
   offset="1"
   style="stop-color:#F6BE21"
   id="stop55" />
		</linearGradient>
		<path
   fill="url(#SVGID_11_)"
   d="m 2041.635,1240.219 2.825,34.547 h -2.825 c -2.853,-8.609 -6.538,-15.094 -11.058,-19.453 -6.512,-6.295 -14.879,-9.443 -25.103,-9.443 -13.937,0 -24.537,5.516 -31.802,16.547 -6.081,9.311 -9.12,20.395 -9.12,33.254 0,10.439 2.018,19.965 6.054,28.574 4.035,8.609 9.322,14.918 15.86,18.926 6.538,4.01 13.25,6.014 20.138,6.014 4.036,0 7.937,-0.51 11.704,-1.533 3.766,-1.021 7.397,-2.529 10.896,-4.52 v -31.641 c 0,-5.488 -0.418,-9.08 -1.251,-10.775 -0.835,-1.695 -2.127,-2.986 -3.875,-3.875 -1.749,-0.887 -4.83,-1.33 -9.241,-1.33 v -3.068 h 42.375 v 3.068 h -2.018 c -4.197,0 -7.077,1.398 -8.637,4.195 -1.077,1.992 -1.614,5.92 -1.614,11.785 v 33.496 c -6.188,3.338 -12.297,5.785 -18.322,7.346 -6.027,1.561 -12.727,2.34 -20.098,2.34 -21.147,0 -37.21,-6.779 -48.187,-20.34 -8.233,-10.17 -12.35,-21.9 -12.35,-35.191 0,-9.631 2.313,-18.859 6.941,-27.686 5.488,-10.492 13.021,-18.564 22.6,-24.213 8.018,-4.682 17.487,-7.023 28.412,-7.023 3.981,0 7.6,0.324 10.855,0.969 3.256,0.646 7.87,2.072 13.843,4.277 3.013,1.131 5.031,1.695 6.054,1.695 1.021,0 1.896,-0.471 2.623,-1.412 0.727,-0.941 1.171,-2.785 1.332,-5.529 h 2.989 z"
   id="path55"
   style="fill:url(#SVGID_11_)" />
	</g>
	<g
   id="g90">
		<linearGradient
   id="SVGID_12_"
   gradientUnits="userSpaceOnUse"
   x1="1629.6035"
   y1="1018.5781"
   x2="1741.7441"
   y2="1018.5781"
   gradientTransform="translate(952.91043,-350.91304)">
			<stop
   offset="0"
   style="stop-color:#FFDA4E"
   id="stop56" />
			<stop
   offset="0.3198"
   style="stop-color:#EDBA29"
   id="stop57" />
			<stop
   offset="0.6802"
   style="stop-color:#D8A517"
   id="stop58" />
			<stop
   offset="1"
   style="stop-color:#FFF980"
   id="stop59" />
			<stop
   offset="1"
   style="stop-color:#F6BE21"
   id="stop60" />
		</linearGradient>
		
		<linearGradient
   id="SVGID_13_"
   gradientUnits="userSpaceOnUse"
   x1="1284.8994"
   y1="835.83588"
   x2="1433.9375"
   y2="835.83588"
   gradientTransform="translate(56.1166,-124.69302)">
			<stop
   offset="0"
   style="stop-color:#FFDA4E"
   id="stop61" />
			<stop
   offset="0.3198"
   style="stop-color:#EDBA29"
   id="stop62" />
			<stop
   offset="0.6802"
   style="stop-color:#D8A517"
   id="stop63" />
			<stop
   offset="1"
   style="stop-color:#FFF980"
   id="stop64" />
			<stop
   offset="1"
   style="stop-color:#F6BE21"
   id="stop65" />
		</linearGradient>
		<path
   fill="url(#SVGID_13_)"
   d="m 1439.4706,752.11797 c 74.4105,25.95786 11.4028,68.27165 50.4952,21.71678 l 0.088,-103.66678 h -149.038 v 14.037 h 98.455 v 67.913"
   id="path65"
   style="fill:url(#SVGID_13_)"
   sodipodi:nodetypes="ccccccc" />
		<linearGradient
   id="SVGID_14_"
   gradientUnits="userSpaceOnUse"
   x1="1258.2539"
   y1="1037.5566"
   x2="1433.9375"
   y2="1037.5566"
   gradientTransform="translate(56.1166,-124.69302)">
			<stop
   offset="0"
   style="stop-color:#FFDA4E"
   id="stop66" />
			<stop
   offset="0.3198"
   style="stop-color:#EDBA29"
   id="stop67" />
			<stop
   offset="0.6802"
   style="stop-color:#D8A517"
   id="stop68" />
			<stop
   offset="1"
   style="stop-color:#FFF980"
   id="stop69" />
			<stop
   offset="1"
   style="stop-color:#F6BE21"
   id="stop70" />
		</linearGradient>
		<path
   fill="url(#SVGID_14_)"
   d="m 1490.0416,962.26792 c 0.013,-0.543 0.013,-1.088 0.013,-1.633 V 773.70797 c -17.9419,6.56621 -41.1133,-45.08107 -50.5594,-21.57021 l -0.024,211.76316 c 0,15.1 -0.569,27.969 -1.982,38.76598 -0.647,5.055 -1.49,9.654 -2.527,13.816 -5.404,21.486 -16.315,31.18 -36.287,31.18 -23.937,0 -39.709,-18.492 -34.81,-44.063 4.898,-21.74598 -3.267,-40.24198 -24.482,-40.24198 -15.228,0 -25.012,13.594 -25.012,28.277 1.633,49.50998 57.113,60.38498 84.304,60.38498 22.303,0 40.797,-4.357 59.836,-16.861 1.956,-1.258 3.836,-2.631 5.638,-4.16 3.523,-2.943 6.752,-6.404 9.616,-10.332 8.112,-11.053 13.517,-25.89298 15.474,-44.15398 0.478,-4.538 0.762,-9.294 0.802,-14.245"
   id="path70"
   style="fill:url(#SVGID_14_)"
   sodipodi:nodetypes="csccsccscscsccccc" />
		<linearGradient
   id="SVGID_15_"
   gradientUnits="userSpaceOnUse"
   x1="1566.0752"
   y1="985.78711"
   x2="1741.7461"
   y2="985.78711"
   gradientTransform="translate(-70.08897,-124.49248)">
			<stop
   offset="0"
   style="stop-color:#FFDA4E"
   id="stop71" />
			<stop
   offset="0.3198"
   style="stop-color:#EDBA29"
   id="stop72" />
			<stop
   offset="0.6802"
   style="stop-color:#D8A517"
   id="stop73" />
			<stop
   offset="1"
   style="stop-color:#FFF980"
   id="stop74" />
			<stop
   offset="1"
   style="stop-color:#F6BE21"
   id="stop75" />
		</linearGradient>
		<path
   fill="url(#SVGID_15_)"
   d="m 1646.644,963.55842 c -21.215,0 -29.38,18.496 -24.468,40.24198 4.887,25.582 -10.885,44.063 -34.811,44.063 -25.219,0 -36,-15.434 -39.464,-50.54498 -0.464,-4.768 -0.802,-9.914 -1.022,-15.422 -0.22,-5.547 -0.324,-11.482 -0.324,-17.795 V 684.40551 h 98.456 v -14.037 h -149.025 v 290.46691 c 0,2.176 0.039,4.328 0.13,6.428 0.181,4.652 0.584,9.111 1.166,13.377 1.426,10.326 3.993,19.48998 7.57,27.42198 1.84,4.086 3.951,7.842 6.322,11.264 4.549,6.648 10.059,12.014 16.344,16.033 19.037,12.504 37.544,16.861 59.848,16.861 27.189,0 82.672,-10.875 84.291,-60.38498 0,-14.683 -9.785,-28.277 -25.013,-28.277"
   id="path75"
   style="fill:url(#SVGID_15_)"
   sodipodi:nodetypes="ccsccsccccscccccscc" />
		<linearGradient
   id="SVGID_16_"
   gradientUnits="userSpaceOnUse"
   x1="1311.4346"
   y1="881.96191"
   x2="1578.2578"
   y2="881.96191"
   gradientTransform="translate(952.91043,-350.91304)">
			<stop
   offset="0"
   style="stop-color:#FFDA4E"
   id="stop76" />
			<stop
   offset="0.3198"
   style="stop-color:#EDBA29"
   id="stop77" />
			<stop
   offset="0.6802"
   style="stop-color:#D8A517"
   id="stop78" />
			<stop
   offset="1"
   style="stop-color:#FFF980"
   id="stop79" />
			<stop
   offset="1"
   style="stop-color:#F6BE21"
   id="stop80" />
		</linearGradient>
		
		<linearGradient
   id="SVGID_17_"
   gradientUnits="userSpaceOnUse"
   x1="1430.6191"
   y1="1131.0371"
   x2="1563.1602"
   y2="1131.0371"
   gradientTransform="translate(952.91043,-350.91304)">
			<stop
   offset="0"
   style="stop-color:#FFDA4E"
   id="stop81" />
			<stop
   offset="0.3198"
   style="stop-color:#EDBA29"
   id="stop82" />
			<stop
   offset="0.6802"
   style="stop-color:#D8A517"
   id="stop83" />
			<stop
   offset="1"
   style="stop-color:#FFF980"
   id="stop84" />
			<stop
   offset="1"
   style="stop-color:#F6BE21"
   id="stop85" />
		</linearGradient>
		
		<linearGradient
   id="SVGID_18_"
   gradientUnits="userSpaceOnUse"
   x1="1487.915"
   y1="897.92188"
   x2="1553.1152"
   y2="897.92188"
   gradientTransform="translate(952.91043,-350.91304)">
			<stop
   offset="0"
   style="stop-color:#FFDA4E"
   id="stop86" />
			<stop
   offset="0.3198"
   style="stop-color:#EDBA29"
   id="stop87" />
			<stop
   offset="0.6802"
   style="stop-color:#D8A517"
   id="stop88" />
			<stop
   offset="1"
   style="stop-color:#FFF980"
   id="stop89" />
			<stop
   offset="1"
   style="stop-color:#F6BE21"
   id="stop90" />
		</linearGradient>
		
	</g>
</g>
<path
   d="M 0,0"
   id="path132"
   style="fill:url(#radialGradient133)"
   transform="matrix(0.66467256,0,0,0.66467256,-28.973537,-153.22773)"
   inkscape:original-d="M 0,0"
   inkscape:path-effect="#path-effect132" /></svg>
