<?xml version="1.0" encoding="UTF-8" standalone="no"?>
<!-- Generator: Adobe Illustrator 16.0.0, SVG Export Plug-In . SVG Version: 6.00 Build 0)  -->

<svg
   version="1.1"
   id="Layer_1"
   x="0px"
   y="0px"
   width="28"
   height="28"
   viewBox="0 0 28.000001 28.000043"
   enable-background="new 0 0 3000 2000"
   xml:space="preserve"
   sodipodi:docname="favicon.svg"
   inkscape:version="1.4 (86a8ad7, 2024-10-11)"
   xmlns:inkscape="http://www.inkscape.org/namespaces/inkscape"
   xmlns:sodipodi="http://sodipodi.sourceforge.net/DTD/sodipodi-0.dtd"
   xmlns:xlink="http://www.w3.org/1999/xlink"
   xmlns="http://www.w3.org/2000/svg"
   xmlns:svg="http://www.w3.org/2000/svg"><defs
   id="defs91"><linearGradient
     id="linearGradient132"
     inkscape:collect="always"><stop
       style="stop-color:#ff0000;stop-opacity:1;"
       offset="0"
       id="stop132" /><stop
       style="stop-color:#ffda4e;stop-opacity:1"
       offset="0.60292941"
       id="stop133" /></linearGradient><linearGradient
     id="swatch108"
     inkscape:swatch="solid"><stop
       style="stop-color:#f9f9f9;stop-opacity:1;"
       offset="0"
       id="stop108" /></linearGradient><inkscape:path-effect
     effect="fill_between_many"
     method="originald"
     linkedpaths="#path124,0,1"
     id="path-effect132"
     is_visible="true"
     lpeversion="0"
     join="true"
     close="true"
     autoreverse="true" /><radialGradient
     inkscape:collect="always"
     xlink:href="#linearGradient132"
     id="radialGradient133"
     cx="19.166857"
     cy="245.77097"
     fx="19.166857"
     fy="245.77097"
     r="37.956757"
     gradientTransform="matrix(1,0,0,1.3341453,0,-82.123202)"
     gradientUnits="userSpaceOnUse" /></defs><sodipodi:namedview
   id="namedview91"
   pagecolor="#ffffff"
   bordercolor="#ffffff"
   borderopacity="1"
   inkscape:showpageshadow="2"
   inkscape:pageopacity="0.0"
   inkscape:pagecheckerboard="false"
   inkscape:deskcolor="#7bd1d1"
   inkscape:zoom="16"
   inkscape:cx="15.125"
   inkscape:cy="11.28125"
   inkscape:window-width="1920"
   inkscape:window-height="1017"
   inkscape:window-x="1912"
   inkscape:window-y="-6"
   inkscape:window-maximized="1"
   inkscape:current-layer="Layer_1" />

<g
   id="g91"
   transform="matrix(0.05837711,0,0,0.05837711,-73.229209,-36.434965)">
	
	<g
   id="g90">
		<linearGradient
   id="SVGID_12_"
   gradientUnits="userSpaceOnUse"
   x1="1629.6035"
   y1="1018.5781"
   x2="1741.7441"
   y2="1018.5781"
   gradientTransform="translate(952.91043,-350.91304)">
			<stop
   offset="0"
   style="stop-color:#FFDA4E"
   id="stop56" />
			<stop
   offset="0.3198"
   style="stop-color:#EDBA29"
   id="stop57" />
			<stop
   offset="0.6802"
   style="stop-color:#D8A517"
   id="stop58" />
			<stop
   offset="1"
   style="stop-color:#FFF980"
   id="stop59" />
			<stop
   offset="1"
   style="stop-color:#F6BE21"
   id="stop60" />
		</linearGradient>
		
		<linearGradient
   id="SVGID_13_"
   gradientUnits="userSpaceOnUse"
   x1="1284.8994"
   y1="835.83588"
   x2="1433.9375"
   y2="835.83588"
   gradientTransform="translate(56.1166,-124.69302)">
			<stop
   offset="0"
   style="stop-color:#FFDA4E"
   id="stop61" />
			<stop
   offset="0.3198"
   style="stop-color:#EDBA29"
   id="stop62" />
			<stop
   offset="0.6802"
   style="stop-color:#D8A517"
   id="stop63" />
			<stop
   offset="1"
   style="stop-color:#FFF980"
   id="stop64" />
			<stop
   offset="1"
   style="stop-color:#F6BE21"
   id="stop65" />
		</linearGradient>
		<path
   fill="url(#SVGID_13_)"
   d="m 1439.4706,752.11797 c 74.4105,25.95786 11.4028,68.27165 50.4952,21.71678 l 0.088,-103.66678 h -149.038 v 14.037 h 98.455 v 67.913"
   id="path65"
   style="fill:url(#SVGID_13_)"
   sodipodi:nodetypes="ccccccc" />
		<linearGradient
   id="SVGID_14_"
   gradientUnits="userSpaceOnUse"
   x1="1258.2539"
   y1="1037.5566"
   x2="1433.9375"
   y2="1037.5566"
   gradientTransform="translate(56.1166,-124.69302)">
			<stop
   offset="0"
   style="stop-color:#FFDA4E"
   id="stop66" />
			<stop
   offset="0.3198"
   style="stop-color:#EDBA29"
   id="stop67" />
			<stop
   offset="0.6802"
   style="stop-color:#D8A517"
   id="stop68" />
			<stop
   offset="1"
   style="stop-color:#FFF980"
   id="stop69" />
			<stop
   offset="1"
   style="stop-color:#F6BE21"
   id="stop70" />
		</linearGradient>
		<path
   fill="url(#SVGID_14_)"
   d="m 1490.0416,962.26792 c 0.013,-0.543 0.013,-1.088 0.013,-1.633 V 773.70797 c -17.9419,6.56621 -41.1133,-45.08107 -50.5594,-21.57021 l -0.024,211.76316 c 0,15.1 -0.569,27.969 -1.982,38.76598 -0.647,5.055 -1.49,9.654 -2.527,13.816 -5.404,21.486 -16.315,31.18 -36.287,31.18 -23.937,0 -39.709,-18.492 -34.81,-44.063 4.898,-21.74598 -3.267,-40.24198 -24.482,-40.24198 -15.228,0 -25.012,13.594 -25.012,28.277 1.633,49.50998 57.113,60.38498 84.304,60.38498 22.303,0 40.797,-4.357 59.836,-16.861 1.956,-1.258 3.836,-2.631 5.638,-4.16 3.523,-2.943 6.752,-6.404 9.616,-10.332 8.112,-11.053 13.517,-25.89298 15.474,-44.15398 0.478,-4.538 0.762,-9.294 0.802,-14.245"
   id="path70"
   style="fill:url(#SVGID_14_)"
   sodipodi:nodetypes="csccsccscscsccccc" />
		<linearGradient
   id="SVGID_15_"
   gradientUnits="userSpaceOnUse"
   x1="1566.0752"
   y1="985.78711"
   x2="1741.7461"
   y2="985.78711"
   gradientTransform="translate(-70.08897,-124.49248)">
			<stop
   offset="0"
   style="stop-color:#FFDA4E"
   id="stop71" />
			<stop
   offset="0.3198"
   style="stop-color:#EDBA29"
   id="stop72" />
			<stop
   offset="0.6802"
   style="stop-color:#D8A517"
   id="stop73" />
			<stop
   offset="1"
   style="stop-color:#FFF980"
   id="stop74" />
			<stop
   offset="1"
   style="stop-color:#F6BE21"
   id="stop75" />
		</linearGradient>
		<path
   fill="url(#SVGID_15_)"
   d="m 1646.644,963.55842 c -21.215,0 -29.38,18.496 -24.468,40.24198 4.887,25.582 -10.885,44.063 -34.811,44.063 -25.219,0 -36,-15.434 -39.464,-50.54498 -0.464,-4.768 -0.802,-9.914 -1.022,-15.422 -0.22,-5.547 -0.324,-11.482 -0.324,-17.795 V 684.40551 h 98.456 v -14.037 h -149.025 v 290.46691 c 0,2.176 0.039,4.328 0.13,6.428 0.181,4.652 0.584,9.111 1.166,13.377 1.426,10.326 3.993,19.48998 7.57,27.42198 1.84,4.086 3.951,7.842 6.322,11.264 4.549,6.648 10.059,12.014 16.344,16.033 19.037,12.504 37.544,16.861 59.848,16.861 27.189,0 82.672,-10.875 84.291,-60.38498 0,-14.683 -9.785,-28.277 -25.013,-28.277"
   id="path75"
   style="fill:url(#SVGID_15_)"
   sodipodi:nodetypes="ccsccsccccscccccscc" />
		<linearGradient
   id="SVGID_16_"
   gradientUnits="userSpaceOnUse"
   x1="1311.4346"
   y1="881.96191"
   x2="1578.2578"
   y2="881.96191"
   gradientTransform="translate(952.91043,-350.91304)">
			<stop
   offset="0"
   style="stop-color:#FFDA4E"
   id="stop76" />
			<stop
   offset="0.3198"
   style="stop-color:#EDBA29"
   id="stop77" />
			<stop
   offset="0.6802"
   style="stop-color:#D8A517"
   id="stop78" />
			<stop
   offset="1"
   style="stop-color:#FFF980"
   id="stop79" />
			<stop
   offset="1"
   style="stop-color:#F6BE21"
   id="stop80" />
		</linearGradient>
		
		<linearGradient
   id="SVGID_17_"
   gradientUnits="userSpaceOnUse"
   x1="1430.6191"
   y1="1131.0371"
   x2="1563.1602"
   y2="1131.0371"
   gradientTransform="translate(952.91043,-350.91304)">
			<stop
   offset="0"
   style="stop-color:#FFDA4E"
   id="stop81" />
			<stop
   offset="0.3198"
   style="stop-color:#EDBA29"
   id="stop82" />
			<stop
   offset="0.6802"
   style="stop-color:#D8A517"
   id="stop83" />
			<stop
   offset="1"
   style="stop-color:#FFF980"
   id="stop84" />
			<stop
   offset="1"
   style="stop-color:#F6BE21"
   id="stop85" />
		</linearGradient>
		
		<linearGradient
   id="SVGID_18_"
   gradientUnits="userSpaceOnUse"
   x1="1487.915"
   y1="897.92188"
   x2="1553.1152"
   y2="897.92188"
   gradientTransform="translate(952.91043,-350.91304)">
			<stop
   offset="0"
   style="stop-color:#FFDA4E"
   id="stop86" />
			<stop
   offset="0.3198"
   style="stop-color:#EDBA29"
   id="stop87" />
			<stop
   offset="0.6802"
   style="stop-color:#D8A517"
   id="stop88" />
			<stop
   offset="1"
   style="stop-color:#FFF980"
   id="stop89" />
			<stop
   offset="1"
   style="stop-color:#F6BE21"
   id="stop90" />
		</linearGradient>
		
	</g>
</g>
<path
   d="M 0,0"
   id="path132"
   style="fill:url(#radialGradient133)"
   transform="matrix(0.66467256,0,0,0.66467256,-31.662735,-155.29945)"
   inkscape:original-d="M 0,0"
   inkscape:path-effect="#path-effect132" /></svg>
